<svg width="20" height="20" viewBox="0 0 20 20" fill="none" xmlns="http://www.w3.org/2000/svg">
<path d="M10 1.875C9.28314 1.87495 8.57328 2.0161 7.91097 2.29041C7.24866 2.56472 6.64687 2.96681 6.13997 3.47371C5.63307 3.98061 5.23098 4.5824 4.95667 5.24471C4.68236 5.90702 4.54121 6.61688 4.54126 7.33375C4.54126 11.6058 8.70876 16.7467 9.80084 18.0096C9.85952 18.0767 9.94235 18.1178 10.0313 18.1241C10.1202 18.1303 10.208 18.1012 10.2754 18.0429L10.3088 18.0096C11.3863 16.7417 15.4583 11.6058 15.4583 7.33333C15.4583 6.61653 15.3172 5.90675 15.0429 5.24452C14.7685 4.58228 14.3665 3.98056 13.8596 3.47371C13.3528 2.96686 12.7511 2.5648 12.0888 2.29049C11.4266 2.01618 10.7168 1.875 10 1.875ZM10 8.815C9.63387 8.815 9.27595 8.70643 8.97151 8.50301C8.66707 8.29959 8.42979 8.01046 8.28968 7.67219C8.14956 7.33392 8.1129 6.9617 8.18433 6.60259C8.25576 6.24348 8.43208 5.91362 8.69098 5.65472C8.94988 5.39582 9.27974 5.2195 9.63885 5.14807C9.99796 5.07664 10.3702 5.1133 10.7085 5.25342C11.0467 5.39353 11.3359 5.63081 11.5393 5.93525C11.7427 6.23969 11.8513 6.59761 11.8513 6.96375V6.96833C11.85 7.45852 11.6545 7.92822 11.3074 8.2744C10.9604 8.62059 10.4902 8.815 10 8.815Z" fill="black" fill-opacity="0.96"/>
</svg>
